<svg viewBox="0 0 24 24" fill="none" xmlns="http://www.w3.org/2000/svg">
  <path d="M20.84 4.61C20.3292 4.09905 19.7228 3.69375 19.0554 3.41716C18.3879 3.14057 17.6725 2.99832 16.95 2.99832C16.2275 2.99832 15.5121 3.14057 14.8446 3.41716C14.1772 3.69375 13.5708 4.09905 13.06 4.61L12 5.67L10.94 4.61C9.9083 3.5783 8.50903 2.9987 7.05 2.9987C5.59096 2.9987 4.19169 3.5783 3.16 4.61C2.1283 5.64169 1.54871 7.04096 1.54871 8.5C1.54871 9.95903 2.1283 11.3583 3.16 12.39L4.22 13.45L12 21.23L19.78 13.45L20.84 12.39C21.351 11.8792 21.7563 11.2728 22.0328 10.6054C22.3094 9.93789 22.4517 9.22249 22.4517 8.5C22.4517 7.77751 22.3094 7.06211 22.0328 6.39466C21.7563 5.72721 21.351 5.12081 20.84 4.61Z" stroke="currentColor" strokeWidth="2" strokeLinecap="round" strokeLinejoin="round"/>
</svg>